<?xml version="1.0" encoding="utf-8"?><!DOCTYPE svg PUBLIC "-//W3C//DTD SVG 1.1//EN" "http://www.w3.org/Graphics/SVG/1.1/DTD/svg11.dtd"><svg version="1.1" baseProfile="full" xmlns="http://www.w3.org/2000/svg" xmlns:xlink="http://www.w3.org/1999/xlink" xmlns:ev="http://www.w3.org/2001/xml-events"   height="10px"   width="10px" ><path fill="rgb( 255, 255, 255 )" d="M9.95000000000005,8.536 C9.95000000000005,8.536 8.53600000000006,9.94999999999999 8.53600000000006,9.94999999999999 C8.53600000000006,9.94999999999999 5,6.41399999999999 5,6.41399999999999 C5,6.41399999999999 1.46499999999992,9.94999999999999 1.46499999999992,9.94999999999999 C1.46499999999992,9.94999999999999 0.04999999999995,8.536 0.04999999999995,8.536 C0.04999999999995,8.536 3.58600000000001,5 3.58600000000001,5 C3.58600000000001,5 0.04999999999995,1.465 0.04999999999995,1.465 C0.04999999999995,1.465 1.46499999999992,0.05000000000001 1.46499999999992,0.05000000000001 C1.46499999999992,0.05000000000001 5,3.58600000000001 5,3.58600000000001 C5,3.58600000000001 8.53600000000006,0.05000000000001 8.53600000000006,0.05000000000001 C8.53600000000006,0.05000000000001 9.95000000000005,1.465 9.95000000000005,1.465 C9.95000000000005,1.465 6.41399999999999,5 6.41399999999999,5 C6.41399999999999,5 9.95000000000005,8.536 9.95000000000005,8.536 Z "/></svg>